<svg width="1069" height="295" viewBox="0 0 1069 295" fill="none" xmlns="http://www.w3.org/2000/svg">
<path d="M56.7074 233H0.03125L73.6463 14.8182H143.852L217.467 233H160.791L109.548 69.7898H107.844L56.7074 233ZM49.1435 147.134H167.609V187.19H49.1435V147.134ZM346.533 162.368V69.3636H398.522V233H348.877V202.531H347.173C343.55 212.545 337.371 220.5 328.636 226.395C319.971 232.219 309.495 235.131 297.208 235.131C286.058 235.131 276.256 232.574 267.805 227.46C259.353 222.347 252.783 215.209 248.096 206.047C243.408 196.814 241.029 186.018 240.958 173.661V69.3636H293.053V163.433C293.124 172.311 295.468 179.307 300.085 184.42C304.701 189.534 310.987 192.091 318.941 192.091C324.126 192.091 328.778 190.955 332.897 188.682C337.087 186.338 340.39 182.964 342.805 178.561C345.29 174.087 346.533 168.689 346.533 162.368ZM524.046 69.3636V107.716H420.814V69.3636H524.046ZM442.441 30.1591H494.536V181.544C494.536 184.74 495.033 187.332 496.027 189.321C497.093 191.239 498.62 192.624 500.608 193.476C502.597 194.257 504.976 194.648 507.746 194.648C509.735 194.648 511.83 194.47 514.032 194.115C516.304 193.689 518.009 193.334 519.145 193.05L527.029 230.656C524.543 231.366 521.027 232.254 516.482 233.32C512.007 234.385 506.645 235.06 500.395 235.344C488.179 235.912 477.703 234.491 468.968 231.082C460.303 227.602 453.662 222.205 449.046 214.889C444.5 207.574 442.299 198.376 442.441 187.297V30.1591ZM606.237 139.676V233H554.142V14.8182H604.532V99.4062H606.343C610.037 89.321 616.074 81.4375 624.454 75.7557C632.906 70.0739 643.24 67.233 655.456 67.233C666.961 67.233 676.975 69.7898 685.498 74.9034C694.021 79.946 700.626 87.0838 705.314 96.3168C710.072 105.55 712.416 116.345 712.345 128.703V233H660.25V138.93C660.321 129.839 658.048 122.737 653.431 117.624C648.815 112.51 642.316 109.953 633.936 109.953C628.467 109.953 623.637 111.161 619.447 113.575C615.328 115.919 612.096 119.293 609.752 123.696C607.48 128.099 606.308 133.426 606.237 139.676ZM774.161 236.089C766.491 236.089 759.921 233.391 754.452 227.993C749.055 222.595 746.391 216.061 746.462 208.391C746.391 200.862 749.055 194.435 754.452 189.108C759.921 183.71 766.491 181.011 774.161 181.011C781.406 181.011 787.798 183.71 793.337 189.108C798.948 194.435 801.789 200.862 801.86 208.391C801.789 213.504 800.44 218.156 797.812 222.347C795.255 226.537 791.881 229.875 787.691 232.361C783.572 234.847 779.062 236.089 774.161 236.089ZM836.271 69.3636H888.366V239.818C888.366 253.313 885.596 264.037 880.056 271.991C874.587 279.946 866.846 285.663 856.832 289.143C846.817 292.624 834.992 294.364 821.356 294.364C819.509 294.364 817.769 294.328 816.136 294.257C814.502 294.186 812.727 294.115 810.809 294.044V254.52C812.087 254.662 813.224 254.768 814.218 254.839C815.212 254.911 816.207 254.946 817.201 254.946C824.374 254.946 829.346 253.597 832.116 250.898C834.886 248.27 836.271 244.222 836.271 238.753V69.3636ZM862.265 50.294C854.95 50.294 848.664 47.8793 843.408 43.0497C838.153 38.1491 835.525 32.2543 835.525 25.3651C835.525 18.5469 838.153 12.723 843.408 7.89346C848.664 2.99289 854.95 0.542601 862.265 0.542601C869.651 0.542601 875.937 2.99289 881.121 7.89346C886.377 12.723 889.005 18.5469 889.005 25.3651C889.005 32.2543 886.377 38.1491 881.121 43.0497C875.937 47.8793 869.651 50.294 862.265 50.294ZM1064.39 119.328L1016.55 120.607C1016.06 117.197 1014.71 114.179 1012.5 111.551C1010.3 108.852 1007.43 106.757 1003.88 105.266C1000.4 103.703 996.347 102.922 991.73 102.922C985.694 102.922 980.544 104.129 976.283 106.544C972.093 108.959 970.033 112.226 970.104 116.345C970.033 119.541 971.311 122.311 973.939 124.655C976.638 126.999 981.432 128.881 988.321 130.301L1019.86 136.267C1036.19 139.392 1048.34 144.577 1056.29 151.821C1064.32 159.065 1068.36 168.653 1068.44 180.585C1068.36 191.807 1065.03 201.572 1058.42 209.882C1051.89 218.192 1042.94 224.655 1031.57 229.271C1020.21 233.817 1007.21 236.089 992.583 236.089C969.216 236.089 950.786 231.295 937.292 221.707C923.868 212.048 916.198 199.122 914.28 182.929L965.736 181.651C966.873 187.616 969.82 192.162 974.578 195.287C979.337 198.412 985.409 199.974 992.796 199.974C999.472 199.974 1004.91 198.732 1009.1 196.246C1013.29 193.76 1015.42 190.457 1015.49 186.338C1015.42 182.645 1013.78 179.697 1010.59 177.496C1007.39 175.223 1002.38 173.447 995.566 172.169L967.015 166.736C950.608 163.753 938.392 158.249 930.367 150.223C922.341 142.126 918.364 131.828 918.435 119.328C918.364 108.391 921.276 99.0511 927.171 91.3097C933.066 83.4972 941.446 77.5313 952.313 73.4119C963.179 69.2926 975.999 67.233 990.772 67.233C1012.93 67.233 1030.4 71.8849 1043.19 81.1889C1055.97 90.4219 1063.04 103.135 1064.39 119.328Z" fill="black"/>
</svg>
