<svg width="1400" height="285" viewBox="0 0 1400 285" fill="none" xmlns="http://www.w3.org/2000/svg">
<g clip-path="url(#clip0_5261_36451)">
<path d="M930.677 0.117432H1174.53V45.1268H1077.8V281.915H1029.43V45.1268H930.677V0.117432Z" fill="black"/>
<path d="M529.626 0.117432V45.1268H334.16V117.533H491.354V162.542H334.16V236.906H529.626V281.915H285.792V45.1268H285.771V0.117432H529.626Z" fill="black"/>
<path d="M651.391 0.235107H588.092L814.814 282.033H878.297L764.922 141.231L878.116 0.450101L814.814 0.547924L733.23 101.872L651.391 0.235107Z" fill="black"/>
<path d="M716.345 201.525L684.646 162.112L587.911 282.248H651.391L716.345 201.525Z" fill="black"/>
<path fill-rule="evenodd" clip-rule="evenodd" d="M287.487 281.915L60.4598 0H0V281.798H48.3679V60.2341L226.724 281.915H287.487Z" fill="black"/>
<path d="M1185.41 280.194C1181.86 280.194 1178.85 278.967 1176.33 276.513C1173.8 274.059 1172.56 271.087 1172.59 267.567C1172.56 264.144 1173.8 261.205 1176.33 258.751C1178.85 256.297 1181.86 255.069 1185.41 255.069C1188.81 255.069 1191.79 256.297 1194.32 258.751C1196.88 261.205 1198.15 264.144 1198.19 267.567C1198.15 269.892 1197.56 272.024 1196.38 273.929C1195.17 275.867 1193.63 277.385 1191.69 278.483C1189.79 279.613 1187.7 280.194 1185.41 280.194Z" fill="black"/>
<path d="M1267.96 161.481H1289.39V244.057C1289.36 251.646 1287.72 258.137 1284.51 263.595C1281.27 269.053 1276.78 273.218 1271.01 276.157C1265.27 279.063 1258.55 280.549 1250.92 280.549C1243.94 280.549 1237.68 279.29 1232.11 276.835C1226.54 274.381 1222.11 270.7 1218.87 265.855C1215.59 261.011 1213.98 254.972 1213.98 247.738H1235.45C1235.48 250.903 1236.2 253.648 1237.58 255.941C1238.95 258.234 1240.86 259.977 1243.28 261.205C1245.74 262.432 1248.56 263.046 1251.74 263.046C1255.18 263.046 1258.13 262.335 1260.52 260.882C1262.91 259.461 1264.75 257.33 1266.03 254.488C1267.27 251.678 1267.93 248.19 1267.96 244.057V161.481Z" fill="black"/>
<path d="M1377.58 193.775C1377.06 188.769 1374.76 184.862 1370.77 182.085C1366.73 179.275 1361.53 177.886 1355.13 177.886C1350.64 177.886 1346.78 178.565 1343.57 179.889C1340.35 181.245 1337.86 183.053 1336.16 185.346C1334.46 187.639 1333.6 190.255 1333.54 193.194C1333.54 195.648 1334.13 197.779 1335.27 199.556C1336.42 201.364 1337.96 202.882 1339.96 204.109C1341.93 205.369 1344.12 206.402 1346.52 207.242C1348.94 208.081 1351.37 208.792 1353.79 209.373L1364.96 212.118C1369.46 213.151 1373.82 214.54 1377.98 216.316C1382.14 218.06 1385.91 220.289 1389.22 222.969C1392.53 225.649 1395.15 228.879 1397.08 232.657C1399.02 236.435 1400 240.86 1400 245.962C1400 252.841 1398.23 258.88 1394.66 264.111C1391.09 269.311 1385.94 273.38 1379.19 276.319C1372.47 279.225 1364.34 280.711 1354.77 280.711C1345.53 280.711 1337.47 279.29 1330.69 276.448C1323.87 273.638 1318.56 269.505 1314.72 264.079C1310.89 258.654 1308.83 252.033 1308.53 244.251H1329.77C1330.06 248.319 1331.38 251.711 1333.6 254.456C1335.86 257.168 1338.81 259.171 1342.42 260.527C1346.06 261.851 1350.12 262.529 1354.61 262.529C1359.3 262.529 1363.43 261.818 1367 260.43C1370.54 259.041 1373.32 257.104 1375.32 254.585C1377.36 252.098 1378.37 249.159 1378.4 245.801C1378.37 242.733 1377.45 240.181 1375.68 238.179C1373.88 236.177 1371.39 234.498 1368.21 233.142C1365 231.785 1361.26 230.558 1357 229.492L1343.44 226.069C1333.64 223.582 1325.87 219.804 1320.2 214.734C1314.5 209.664 1311.68 202.947 1311.68 194.518C1311.68 187.607 1313.58 181.536 1317.41 176.336C1321.21 171.137 1326.43 167.1 1333.01 164.226C1339.63 161.32 1347.11 159.898 1355.43 159.898C1363.88 159.898 1371.29 161.32 1377.68 164.226C1384.07 167.1 1389.09 171.105 1392.72 176.207C1396.36 181.31 1398.26 187.155 1398.36 193.775H1377.58Z" fill="black"/>
</g>
<defs>
<clipPath id="clip0_5261_36451">
<rect width="1400" height="284.264" fill="white"/>
</clipPath>
</defs>
</svg>
