<svg width="2592" height="444" viewBox="0 0 2592 444" fill="none" xmlns="http://www.w3.org/2000/svg">
<path d="M0.926136 437V0.636351H173.085C206.04 0.636351 234.165 6.53124 257.46 18.321C280.898 29.9687 298.724 46.517 310.94 67.9659C323.298 89.2727 329.477 114.344 329.477 143.179C329.477 172.156 323.227 197.085 310.727 217.966C298.227 238.705 280.116 254.614 256.395 265.693C232.815 276.773 204.264 282.312 170.741 282.312H55.4716V208.165H155.827C173.44 208.165 188.071 205.75 199.719 200.92C211.366 196.091 220.031 188.847 225.713 179.188C231.537 169.528 234.449 157.526 234.449 143.179C234.449 128.69 231.537 116.474 225.713 106.531C220.031 96.5881 211.295 89.0596 199.506 83.946C187.858 78.6903 173.156 76.0625 155.401 76.0625H93.1847V437H0.926136ZM236.58 238.42L345.031 437H243.185L137.077 238.42H236.58ZM536.846 443.392C503.181 443.392 474.204 436.574 449.914 422.938C425.766 409.159 407.158 389.699 394.09 364.557C381.022 339.273 374.488 309.372 374.488 274.855C374.488 241.19 381.022 211.645 394.09 186.219C407.158 160.793 425.553 140.977 449.275 126.773C473.138 112.568 501.121 105.466 533.224 105.466C554.815 105.466 574.914 108.946 593.522 115.906C612.272 122.724 628.607 133.023 642.528 146.801C656.59 160.58 667.528 177.909 675.34 198.79C683.153 219.528 687.059 243.818 687.059 271.659V296.588H410.71V240.338H601.619C601.619 227.27 598.778 215.693 593.096 205.608C587.414 195.523 579.531 187.639 569.445 181.957C559.502 176.134 547.925 173.222 534.715 173.222C520.937 173.222 508.721 176.418 498.067 182.81C487.556 189.06 479.317 197.511 473.352 208.165C467.386 218.676 464.332 230.395 464.19 243.321V296.801C464.19 312.994 467.173 326.986 473.138 338.776C479.246 350.565 487.84 359.656 498.92 366.048C509.999 372.44 523.138 375.636 538.337 375.636C548.423 375.636 557.656 374.216 566.036 371.375C574.417 368.534 581.59 364.273 587.556 358.591C593.522 352.909 598.067 345.949 601.192 337.71L685.141 343.25C680.88 363.42 672.144 381.034 658.934 396.091C645.866 411.006 628.962 422.653 608.224 431.034C587.627 439.273 563.835 443.392 536.846 443.392ZM894.161 443.392C860.638 443.392 831.803 436.29 807.656 422.085C783.65 407.739 765.184 387.852 752.258 362.426C739.474 337 733.082 307.739 733.082 274.642C733.082 241.119 739.545 211.716 752.471 186.432C765.539 161.006 784.076 141.19 808.082 126.986C832.087 112.639 860.638 105.466 893.735 105.466C922.286 105.466 947.286 110.651 968.735 121.02C990.184 131.389 1007.16 145.949 1019.66 164.699C1032.16 183.449 1039.05 205.466 1040.33 230.75H954.673C952.258 214.415 945.866 201.276 935.496 191.332C925.269 181.247 911.846 176.205 895.227 176.205C881.164 176.205 868.877 180.04 858.366 187.71C847.996 195.239 839.9 206.247 834.076 220.736C828.252 235.224 825.34 252.767 825.34 273.364C825.34 294.244 828.181 312 833.863 326.631C839.687 341.261 847.854 352.412 858.366 360.082C868.877 367.753 881.164 371.588 895.227 371.588C905.596 371.588 914.9 369.457 923.139 365.196C931.519 360.935 938.408 354.756 943.806 346.659C949.346 338.42 952.968 328.548 954.673 317.043H1040.33C1038.91 342.043 1032.09 364.06 1019.87 383.094C1007.8 401.986 991.107 416.759 969.8 427.412C948.494 438.065 923.281 443.392 894.161 443.392ZM1189.21 247.795V437H1098.44V0.636351H1186.65V167.469H1190.49C1197.87 148.151 1209.8 133.023 1226.28 122.085C1242.76 111.006 1263.43 105.466 1288.28 105.466C1311.01 105.466 1330.83 110.437 1347.73 120.381C1364.78 130.182 1377.99 144.315 1387.36 162.781C1396.88 181.105 1401.57 203.051 1401.42 228.619V437H1310.66V244.812C1310.8 224.642 1305.68 208.946 1295.32 197.724C1285.09 186.503 1270.74 180.892 1252.28 180.892C1239.92 180.892 1228.98 183.52 1219.46 188.776C1210.09 194.031 1202.7 201.702 1197.3 211.787C1192.05 221.73 1189.35 233.733 1189.21 247.795ZM1566.18 443.179C1545.3 443.179 1526.69 439.557 1510.35 432.312C1494.02 424.926 1481.09 414.06 1471.58 399.713C1462.2 385.224 1457.51 367.185 1457.51 345.594C1457.51 327.412 1460.85 312.142 1467.53 299.784C1474.2 287.426 1483.29 277.483 1494.8 269.955C1506.31 262.426 1519.37 256.744 1534 252.909C1548.78 249.074 1564.26 246.375 1580.45 244.812C1599.49 242.824 1614.83 240.977 1626.48 239.273C1638.12 237.426 1646.58 234.727 1651.83 231.176C1657.09 227.625 1659.72 222.369 1659.72 215.409V214.131C1659.72 200.636 1655.45 190.196 1646.93 182.81C1638.55 175.423 1626.62 171.73 1611.14 171.73C1594.8 171.73 1581.8 175.352 1572.14 182.597C1562.49 189.699 1556.09 198.648 1552.97 209.443L1469.02 202.625C1473.28 182.739 1481.66 165.551 1494.16 151.062C1506.66 136.432 1522.78 125.21 1542.53 117.398C1562.41 109.443 1585.43 105.466 1611.56 105.466C1629.74 105.466 1647.14 107.597 1663.76 111.858C1680.52 116.119 1695.37 122.724 1708.29 131.673C1721.36 140.622 1731.66 152.128 1739.19 166.19C1746.72 180.111 1750.48 196.801 1750.48 216.261V437H1664.4V391.616H1661.85C1656.59 401.844 1649.56 410.864 1640.75 418.676C1631.95 426.347 1621.36 432.384 1609 436.787C1596.65 441.048 1582.37 443.179 1566.18 443.179ZM1592.17 380.537C1605.52 380.537 1617.31 377.909 1627.54 372.653C1637.77 367.256 1645.79 360.011 1651.62 350.92C1657.44 341.83 1660.35 331.531 1660.35 320.026V285.295C1657.51 287.142 1653.61 288.847 1648.64 290.409C1643.81 291.83 1638.34 293.179 1632.23 294.457C1626.12 295.594 1620.01 296.659 1613.91 297.653C1607.8 298.506 1602.26 299.287 1597.29 299.997C1586.63 301.56 1577.33 304.045 1569.37 307.455C1561.42 310.864 1555.24 315.48 1550.84 321.304C1546.43 326.986 1544.23 334.088 1544.23 342.611C1544.23 354.969 1548.71 364.415 1557.66 370.949C1566.75 377.341 1578.25 380.537 1592.17 380.537ZM1820.9 437V109.727H1908.9V166.83H1912.31C1918.27 146.517 1928.29 131.176 1942.35 120.807C1956.41 110.295 1972.61 105.04 1990.93 105.04C1995.48 105.04 2000.38 105.324 2005.63 105.892C2010.89 106.46 2015.5 107.241 2019.48 108.236V188.776C2015.22 187.497 2009.32 186.361 2001.8 185.366C1994.27 184.372 1987.38 183.875 1981.13 183.875C1967.78 183.875 1955.84 186.787 1945.33 192.611C1934.96 198.293 1926.73 206.247 1920.62 216.474C1914.65 226.702 1911.67 238.491 1911.67 251.844V437H1820.9ZM2256.89 109.727V177.909H2059.8V109.727H2256.89ZM2104.55 31.3182H2195.32V336.432C2195.32 344.812 2196.59 351.347 2199.15 356.034C2201.71 360.58 2205.26 363.776 2209.8 365.622C2214.49 367.469 2219.89 368.392 2226 368.392C2230.26 368.392 2234.52 368.037 2238.78 367.327C2243.04 366.474 2246.31 365.835 2248.58 365.409L2262.86 432.952C2258.31 434.372 2251.92 436.006 2243.68 437.852C2235.44 439.841 2225.43 441.048 2213.64 441.474C2191.76 442.327 2172.59 439.415 2156.11 432.739C2139.78 426.062 2127.06 415.693 2117.97 401.631C2108.88 387.568 2104.41 369.812 2104.55 348.364V31.3182ZM2584.22 203.051L2501.12 208.165C2499.7 201.062 2496.65 194.67 2491.96 188.989C2487.27 183.165 2481.09 178.548 2473.42 175.139C2465.89 171.588 2456.87 169.812 2446.36 169.812C2432.3 169.812 2420.44 172.795 2410.78 178.761C2401.12 184.585 2396.29 192.398 2396.29 202.199C2396.29 210.011 2399.42 216.616 2405.67 222.014C2411.92 227.412 2422.64 231.744 2437.84 235.011L2497.07 246.943C2528.89 253.477 2552.61 263.989 2568.24 278.477C2583.86 292.966 2591.68 312 2591.68 335.58C2591.68 357.028 2585.35 375.849 2572.71 392.043C2560.21 408.236 2543.02 420.878 2521.15 429.969C2499.42 438.918 2474.35 443.392 2445.94 443.392C2402.61 443.392 2368.1 434.372 2342.39 416.332C2316.82 398.151 2301.83 373.435 2297.43 342.185L2386.7 337.497C2389.4 350.707 2395.94 360.793 2406.31 367.753C2416.68 374.571 2429.96 377.98 2446.15 377.98C2462.06 377.98 2474.84 374.926 2484.5 368.818C2494.3 362.568 2499.27 354.543 2499.42 344.741C2499.27 336.503 2495.79 329.756 2488.98 324.5C2482.16 319.102 2471.65 314.983 2457.44 312.142L2400.77 300.849C2368.81 294.457 2345.01 283.378 2329.39 267.611C2313.91 251.844 2306.16 231.744 2306.16 207.312C2306.16 186.29 2311.85 168.179 2323.21 152.98C2334.72 137.781 2350.84 126.062 2371.58 117.824C2392.46 109.585 2416.89 105.466 2444.87 105.466C2486.21 105.466 2518.74 114.202 2542.46 131.673C2566.32 149.145 2580.24 172.937 2584.22 203.051Z" fill="black"/>
</svg>
