<svg width="1400" height="292" viewBox="0 0 1400 292" fill="none" xmlns="http://www.w3.org/2000/svg">
<path d="M0 288.693H61.8629V191.775H113.828L162.493 288.693H230.955L174.041 177.34C204.147 162.906 223.531 133.212 223.531 96.0937C223.531 37.5303 181.052 0 117.539 0H0V288.693ZM112.59 51.552C141.872 51.552 160.431 68.8742 160.431 96.0937C160.431 122.901 141.872 140.222 112.59 140.222H61.8629V51.552H112.59ZM353.952 291.168C410.454 291.168 447.159 258.174 453.758 216.933H396.431C391.483 236.729 374.986 247.039 351.477 247.039C322.196 247.039 302.812 228.893 301.575 198.786V195.899H455.407C456.644 189.3 457.057 182.29 457.057 176.103C456.232 113.828 413.34 74.2353 349.828 74.2353C284.253 74.2353 240.95 117.127 240.95 183.114C240.95 248.689 283.429 291.168 353.952 291.168ZM302.812 157.957C306.112 132.799 325.083 117.539 350.241 117.539C376.635 117.539 394.369 131.974 398.494 157.957H302.812ZM477.327 218.17C479.802 263.536 519.806 291.168 578.782 291.168C635.696 291.168 675.288 264.361 675.288 222.294C675.288 174.453 634.871 163.318 586.205 158.368C555.686 154.657 537.54 153.007 537.54 136.923C537.54 123.313 552.387 115.065 575.07 115.065C598.578 115.065 614.663 125.375 616.312 142.284H671.988C669.102 98.9802 629.922 73.8234 573.008 73.8234C518.568 73.4104 481.863 101.043 481.863 143.109C481.863 186.826 520.218 197.961 569.709 203.735C603.939 208.271 618.374 209.509 618.374 226.83C618.374 241.678 603.527 249.513 579.194 249.513C550.737 249.513 534.653 236.729 532.591 218.17H477.327ZM810.674 291.168C867.176 291.168 903.881 258.174 910.48 216.933H853.153C848.204 236.729 831.708 247.039 808.2 247.039C778.918 247.039 759.534 228.893 758.297 198.786V195.899H912.13C913.366 189.3 913.779 182.29 913.779 176.103C912.955 113.828 870.063 74.2353 806.55 74.2353C740.976 74.2353 697.671 117.127 697.671 183.114C697.671 248.689 740.151 291.168 810.674 291.168ZM759.534 157.957C762.833 132.799 781.805 117.539 806.962 117.539C833.358 117.539 851.092 131.974 855.215 157.957H759.534ZM1067.22 74.2353C1034.64 74.2353 1015.26 86.6083 1001.65 103.105L996.284 76.7099H945.558V288.693H1003.71V180.227C1003.71 143.522 1021.03 122.076 1051.13 122.076C1080.42 122.076 1094.03 141.047 1094.03 176.927V288.693H1152.18V171.154C1152.18 98.5683 1113 74.2353 1067.22 74.2353ZM1341.85 103.105C1328.24 85.7834 1307.2 74.2353 1277.93 74.2353C1221.42 74.2353 1179.77 116.714 1179.77 182.29C1179.77 249.514 1221.42 291.168 1278.34 291.168C1308.86 291.168 1329.47 277.558 1343.5 259.412L1349.27 288.693H1400V0H1341.85V103.105ZM1291.12 243.739C1259.36 243.739 1239.16 218.995 1239.16 182.701C1239.16 146.408 1259.36 121.664 1291.12 121.664C1322.88 121.664 1342.67 146.821 1342.67 183.114C1342.67 218.995 1322.88 243.739 1291.12 243.739Z" fill="black"/>
</svg>
