<svg width="1000" height="415" viewBox="0 0 1000 415" fill="none" xmlns="http://www.w3.org/2000/svg">
<mask id="mask0_5261_36446" style="mask-type:luminance" maskUnits="userSpaceOnUse" x="0" y="0" width="1000" height="415">
<path d="M0 0H1000V414.8H0V0Z" fill="white"/>
</mask>
<g mask="url(#mask0_5261_36446)">
<path fill-rule="evenodd" clip-rule="evenodd" d="M104.379 186.587C82.828 178.616 71.0172 172.416 71.0172 162.673C71.0172 154.405 77.8083 149.682 89.9135 149.682C112.056 149.682 134.787 158.245 150.435 165.919L159.292 111.303C146.892 105.398 121.502 95.655 86.3708 95.655C61.5713 95.655 40.9036 102.149 26.1435 114.255C10.79 126.949 2.81876 145.254 2.81876 167.396C2.81876 207.547 27.3237 224.672 67.18 239.138C92.8651 248.289 101.428 254.786 101.428 264.823C101.428 274.565 93.1596 280.174 78.1028 280.174C59.5032 280.174 28.8006 271.023 8.72413 259.214L-0.132812 314.422C16.9899 324.164 48.8749 334.201 81.9423 334.201C108.216 334.201 130.064 328.001 144.827 316.193C161.358 303.202 169.921 284.013 169.921 259.214C169.921 218.175 144.827 201.053 104.379 186.587ZM314.105 154.405L322.962 100.083H276.204V34.1391L213.337 44.484L204.259 100.083L182.148 103.671L173.871 154.405H204.168V260.985C204.168 288.736 211.254 307.927 225.719 319.736C237.825 329.478 255.242 334.201 279.747 334.201C298.641 334.201 310.155 330.955 318.126 328.887V271.317C313.698 272.499 303.66 274.565 296.869 274.565C282.404 274.565 276.204 267.185 276.204 250.357V154.405H314.105ZM454.523 96.9105C433.857 96.9105 417.324 107.76 410.829 127.246L406.401 100.083H342.336V329.773H415.552V180.682C424.706 169.462 437.695 165.406 455.409 165.406C459.248 165.406 463.38 165.406 468.4 166.291V98.6819C463.38 97.5017 458.951 96.9105 454.523 96.9105ZM523.018 77.3499C544.275 77.3499 561.398 59.9327 561.398 38.6761C561.398 17.1227 544.275 0 523.018 0C501.465 0 484.342 17.1227 484.342 38.6761C484.342 59.9327 501.465 77.3499 523.018 77.3499ZM486.113 100.083H559.626V329.773H486.113V100.083ZM767.948 120.749C754.957 103.921 736.949 95.655 713.921 95.655C692.664 95.655 674.064 104.512 656.645 123.112L652.808 100.083H588.447V414.8L661.665 402.696V328.887C672.882 332.43 684.396 334.201 694.73 334.201C713.035 334.201 739.606 329.478 760.271 307.041C780.051 285.488 790.09 252.128 790.09 208.138C790.09 169.168 782.708 139.645 767.948 120.749ZM707.13 262.46C701.224 273.68 692.073 279.585 681.445 279.585C674.065 279.585 667.568 278.108 661.665 275.156V165.919C674.064 152.931 685.282 151.454 689.416 151.454C708.015 151.454 717.167 171.53 717.167 210.795C717.167 233.232 713.921 250.652 707.13 262.46ZM1000 212.861C1000 176.253 992.029 147.32 976.381 126.949C960.438 106.283 936.525 95.655 906.116 95.655C843.821 95.655 805.147 141.711 805.147 215.518C805.147 256.851 815.479 287.851 835.85 307.63C854.155 325.344 880.431 334.201 914.382 334.201C945.676 334.201 974.609 326.821 992.915 314.716L984.943 264.528C966.933 274.271 945.973 279.585 922.353 279.585C908.182 279.585 898.44 276.631 891.354 270.431C883.677 263.937 879.249 253.309 877.774 238.252H999.114C999.409 234.709 1000 218.175 1000 212.861ZM877.183 193.376C879.249 160.605 888.106 145.254 904.934 145.254C921.468 145.254 930.03 160.902 931.21 193.376H877.183Z" fill="#1A1918"/>
</g>
</svg>
