<svg width="2000" height="428" viewBox="0 0 2000 428" fill="none" xmlns="http://www.w3.org/2000/svg">
<path d="M478.314 270.669C480.314 290.671 498.648 324.67 550.982 324.67C596.65 324.67 618.649 295.67 618.649 267.336C618.649 241.669 601.315 221.002 566.981 213.668L542.315 208.336C532.649 206.67 526.315 201.336 526.315 192.669C526.315 182.669 536.315 175.335 548.649 175.335C568.649 175.335 575.981 188.336 577.316 198.669L616.65 189.669C614.65 171.002 597.983 139.335 548.314 139.335C510.647 139.335 482.98 165.335 482.98 196.335C482.98 220.669 498.314 241.002 531.982 248.336L554.982 253.67C568.316 256.67 573.648 263.004 573.648 270.669C573.648 280.002 566.315 288.003 550.649 288.003C529.981 288.003 519.981 275.337 518.648 261.335L478.314 270.669ZM769.317 319.338H814.318C813.651 313.337 812.652 301.337 812.652 287.669V144.668H765.651V246.003C765.651 266.336 753.652 280.336 732.65 280.336C710.65 280.336 700.65 264.67 700.65 245.337V144.668H653.317V255.003C653.317 293.004 677.316 323.67 719.651 323.67C737.984 323.67 758.317 316.669 767.984 300.337C767.651 307.669 768.317 315.67 769.317 319.338ZM909.985 386.671V302.337C918.652 314.003 936.319 323.67 960.32 323.67C1009.65 323.67 1042.65 284.67 1042.65 231.669C1042.65 180.003 1013.32 141.002 962.32 141.002C935.986 141.002 916.652 152.668 908.652 166.335V145.002H862.985V386.671H909.985ZM995.987 232.002C995.987 263.337 976.987 281.337 952.653 281.337C928.652 281.337 908.985 263.004 908.985 232.002C908.985 201.002 928.319 183.002 952.653 183.002C976.654 183.002 995.987 201.002 995.987 232.002ZM1068.99 271.671C1068.99 299.002 1091.65 324.337 1128.99 324.337C1154.99 324.337 1171.66 312.337 1180.32 298.336C1180.32 305.003 1180.99 314.67 1181.99 319.338H1225.32C1224.32 313.337 1223.32 301.004 1223.32 291.671V205.668C1223.32 170.669 1202.66 139.335 1147.66 139.335C1100.99 139.335 1075.65 169.335 1072.99 196.668L1114.65 205.668C1115.99 190.336 1127.32 177.335 1147.99 177.335C1167.99 177.335 1177.32 187.668 1177.32 200.003C1177.32 206.001 1173.99 211.002 1164.32 212.335L1121.32 218.669C1091.99 223.002 1068.99 240.336 1068.99 271.671ZM1138.99 289.002C1123.65 289.002 1116.32 279.003 1116.32 268.669C1116.32 255.337 1125.99 248.336 1137.99 246.67L1177.32 240.669V248.336C1176.99 279.669 1158.65 289.002 1138.99 289.002ZM1316.32 319.338V298.003C1325.66 313.004 1343.99 323.67 1367.99 323.67C1417.66 323.67 1450.33 284.337 1450.33 231.336C1450.33 179.669 1420.99 140.002 1369.99 140.002C1343.99 140.002 1324.99 151.335 1317.32 163.668V62.334H1270.99V319.004L1316.32 319.338ZM1403.32 231.669C1403.32 263.67 1384.32 281.337 1359.99 281.337C1336.32 281.337 1316.32 263.337 1316.32 231.669C1316.32 199.669 1336.32 182.336 1359.99 182.336C1383.99 182.336 1403.32 199.669 1403.32 231.669ZM1476.99 271.671C1476.99 299.002 1499.66 324.337 1536.99 324.337C1562.99 324.337 1579.66 312.337 1588.33 298.336C1588.33 305.003 1588.99 314.67 1589.99 319.338H1633.33C1632.33 313.337 1631.33 301.004 1631.33 291.671V205.668C1631.33 170.669 1610.66 139.335 1555.66 139.335C1508.99 139.335 1483.66 169.335 1480.99 196.668L1522.66 205.668C1523.99 190.336 1535.33 177.335 1555.99 177.335C1575.99 177.335 1585.33 187.668 1585.33 200.003C1585.33 206.001 1581.99 211.002 1572.33 212.335L1529.33 218.669C1499.99 223.002 1476.99 240.336 1476.99 271.671ZM1546.66 289.002C1531.33 289.002 1523.99 279.003 1523.99 268.669C1523.99 255.337 1533.66 248.336 1545.66 246.67L1584.99 240.669V248.336C1584.99 279.669 1566.66 289.002 1546.66 289.002ZM1663.66 270.669C1665.66 290.671 1684 324.67 1736.33 324.67C1782 324.67 1804 295.67 1804 267.336C1804 241.669 1786.66 221.002 1752.33 213.668L1727.66 208.336C1717.99 206.67 1711.66 201.336 1711.66 192.669C1711.66 182.669 1721.66 175.335 1733.99 175.335C1753.99 175.335 1761.33 188.336 1762.66 198.669L1802 189.669C1800 171.002 1783.33 139.335 1733.66 139.335C1695.99 139.335 1668.33 165.335 1668.33 196.335C1668.33 220.669 1683.66 241.002 1717.33 248.336L1740.33 253.67C1753.66 256.67 1759 263.004 1759 270.669C1759 280.002 1751.66 288.003 1735.99 288.003C1715.33 288.003 1705.33 275.337 1703.99 261.335L1663.66 270.669ZM1875.66 212.002C1876.66 196.001 1890.32 177.669 1914.67 177.669C1941.67 177.669 1953 194.668 1953.66 212.002H1875.66ZM1958.33 257.669C1952.66 273.337 1940.67 284.337 1918.66 284.337C1895.33 284.337 1875.66 267.669 1874.66 244.67H1999.32C1999.32 244.004 2000 237.003 2000 230.002C2000 174.002 1967.67 139.668 1913.99 139.668C1869.33 139.668 1828.33 176.002 1828.33 231.669C1828.33 290.671 1870.33 325.003 1918.32 325.003C1961.33 325.003 1989 299.671 1997.67 269.669L1958.33 257.669Z" fill="black"/>
<path d="M18.6668 261.004C8.33343 261.004 0 252.67 0 242.337C0 238.336 1.33336 234.336 3.66672 231.335L10.6668 221.335L172.335 3.00005C173.669 1.33336 175.669 0 178.002 0C182.002 0 185.001 3.00005 185.001 7.00009V7.66676V260.67L18.6668 261.004Z" fill="black"/>
<path d="M352 166.663C362.334 166.663 370.667 174.997 370.667 185.33C370.667 189.331 369.334 193.33 367.001 196.33L360.001 206.33L198.331 424.666C196.998 426.333 194.998 427.666 192.666 427.666C188.664 427.666 185.665 424.666 185.665 420.665V419.999V166.663H352Z" fill="black"/>
<path d="M352 166.663C362.334 166.663 370.667 174.997 370.667 185.33C370.667 189.331 369.334 193.33 367.001 196.33L360.001 206.33L198.331 424.666C196.998 426.333 194.998 427.666 192.666 427.666C188.664 427.666 185.665 424.666 185.665 420.665V419.999V166.663H352Z" fill="#343434" fill-opacity="0.2"/>
</svg>
